inDegrees=no
num_controls=7
num_derivatives=13
num_iterations=162
num_multipliers=7
num_parameters=0
num_slacks=7
num_states=26
objective=5.406617
objective_accelerations=0.615137
objective_balance=0.035424
objective_effort=0.234700
objective_height=4.431081
objective_ligament=0.090276
solver_duration=1797.336139
status=Solve_Succeeded
success=true
DataType=double
version=3
OpenSimVersion=4.4-2022-07-23-0e9fedc
endheader
time	/jointset/ground_pelvis/pelvis_tilt/value	/jointset/ground_pelvis/pelvis_tx/value	/jointset/ground_pelvis/pelvis_ty/value	/jointset/hip_l/hip_flexion_l/value	/jointset/hip_l/hip_adduction_l/value	/jointset/hip_l/hip_rotation_l/value	/jointset/back/lumbar_extension/value	/jointset/patellofemoral_l/patellar_flexion_l/value	/jointset/knee_l/knee_flexion_l/value	/jointset/knee_l/knee_adduction_l/value	/jointset/knee_l/knee_rotation_l/value	/jointset/ankle_l/ankle_angle_l/value	/jointset/subtalar_l/subtalar_angle_l/value	/jointset/ground_pelvis/pelvis_tilt/speed	/jointset/ground_pelvis/pelvis_tx/speed	/jointset/ground_pelvis/pelvis_ty/speed	/jointset/hip_l/hip_flexion_l/speed	/jointset/hip_l/hip_adduction_l/speed	/jointset/hip_l/hip_rotation_l/speed	/jointset/back/lumbar_extension/speed	/jointset/patellofemoral_l/patellar_flexion_l/speed	/jointset/knee_l/knee_flexion_l/speed	/jointset/knee_l/knee_adduction_l/speed	/jointset/knee_l/knee_rotation_l/speed	/jointset/ankle_l/ankle_angle_l/speed	/jointset/subtalar_l/subtalar_angle_l/speed	/forceset/tau_hip_flexion_l	/forceset/tau_hip_adduction_l	/forceset/tau_hip_rotation_l	/forceset/tau_knee_flexion_l	/forceset/tau_ankle_angle_l	/forceset/tau_subtalar_angle_l	/forceset/tau_lumbar_extension	lambda_cid13_p0	lambda_cid13_p1	lambda_cid13_p2	lambda_cid13_p3	lambda_cid13_p4	lambda_cid13_p5	lambda_cid14_p0	/jointset/ground_pelvis/pelvis_tilt/accel	/jointset/ground_pelvis/pelvis_tx/accel	/jointset/ground_pelvis/pelvis_ty/accel	/jointset/hip_l/hip_flexion_l/accel	/jointset/hip_l/hip_adduction_l/accel	/jointset/hip_l/hip_rotation_l/accel	/jointset/back/lumbar_extension/accel	/jointset/patellofemoral_l/patellar_flexion_l/accel	/jointset/knee_l/knee_flexion_l/accel	/jointset/knee_l/knee_adduction_l/accel	/jointset/knee_l/knee_rotation_l/accel	/jointset/ankle_l/ankle_angle_l/accel	/jointset/subtalar_l/subtalar_angle_l/accel	gamma_cid13_p0	gamma_cid13_p1	gamma_cid13_p2	gamma_cid13_p3	gamma_cid13_p4	gamma_cid13_p5	gamma_cid14_p0
1	-0.3536878342010061	0.01976084079965003	0.6184831547231331	1.458119905323141	-0.4933917736626549	-0.002645202483132421	-0.2617991810107456	1.417529385573514	1.417529385573453	-0.07412184975232748	-0.1745327674474758	0.436257309846891	0.1017195821833292	-0.01674578173472458	0.009389126202924517	0.0005159351864033614	0.0002950327658949893	-0.003111913578140161	9.947053810870315e-05	-6.705324080571498e-05	0.0002823211508506038	0.0002823211508505753	-0.003089958834104597	-2.588074201839542e-05	0.01605541184885965	0.008160112141043195	-0.2251579377353539	0.05435304804753017	0.000830751810960667	-0.3526322194638482	-0.07354707213613901	0.0202367879251077	0.2146828183339796	-62.43707364863084	2.348658041719285	-0.9447634667100725	14.82810001326018	-629.4079727253408	-61.26011874132252	-0.8198757599271834	0.9921978584470256	0.009797801915463564	1.733607007253428	-5.344489867529881	0.2319979609310399	-2.291995726048397	0.0002541357261819609	-5.373829056493426	-5.373829056493491	-0.5653055028231611	-0.0221769777407279	-1.717846088476416	-0.9968652090099428	3.167626071489673e-09	2.042513227074911e-08	-1.298153108376263e-08	4.2087654180429e-09	-3.351250300058356e-10	3.433187509506182e-08	9.642626113457786e-10
1.01	-0.3538062662395814	0.01985520092676774	0.6185748621610353	1.457856608367285	-0.4934105743987544	-0.002760076899147073	-0.26179925279038	1.417263801988149	1.417263801987912	-0.07417839019770034	-0.1745329127385234	0.4363322155527453	0.101752774226545	-0.006929991520982601	0.00948441173894371	0.01782344664598028	-0.05295921768189869	-0.0006450260216491233	-0.0230682985191898	3.424443365347891e-05	-0.05339675504561153	-0.05339675504560829	-0.008218525817964648	-1.511777824552942e-08	-0.001076449535855393	-0.001517973958500207	-0.2250487416719703	0.05438653290292565	0.0008125056890356141	-0.3524747147352644	-0.07355949883103155	0.02025207928212712	0.2145851438161183	-62.4267128453087	2.334227011367008	-0.9356367286270398	14.74931668567692	-629.240783870563	-61.25793760590383	-0.8238853407065194	0.9778639550701154	0.009621728946800944	1.72900523089014	-5.316612733611897	0.25451183824555	-2.328264955392519	0.01229965071165112	-5.364602533172227	-5.364602533171742	-0.486694960299541	0.01545158376468865	-1.711182887238988	-0.952726263492503	-4.166002606044748e-09	7.511300902140811e-09	3.526763839993142e-08	4.604832962441738e-09	-1.050828610007827e-08	5.165229669122547e-08	-9.352238836219764e-09
1.02	-0.3538262215055772	0.01995055946914594	0.6188395811166494	1.457060624886917	-0.4934046107222392	-0.003106448497699887	-0.2617988651798354	1.416461496514428	1.416461496514017	-0.07428622884573827	-0.1745327027230422	0.4362357372999899	0.1016892962181528	0.002949572782062206	0.009588809255023317	0.03511823872876425	-0.1062422721379983	0.001840968944336195	-0.04619996596936567	2.482480435019085e-05	-0.1070620565200605	-0.1070620565200569	-0.01334959936710802	4.518055679421692e-05	-0.01822137987137106	-0.0111738981806844	-0.2249395456085169	0.05442001775833604	0.0007942595670419644	-0.3523172100066808	-0.07357192552592859	0.02026737063916928	0.2144874692983225	-62.42487673991742	2.320821557565785	-0.9261402890114648	14.70795061878442	-629.20196000928	-61.24033386009158	-0.8358165435364192	1.004952676307596	0.01162019792754133	1.731063131894836	-5.35025066919107	0.235819442829906	-2.284775404623861	-0.02188932502676028	-5.371074112090795	-5.371074112091447	-0.5658068158798193	-0.01831096767424492	-1.720459878636546	-0.9924328335380891	-1.214738295761053e-08	-8.379529481053068e-09	8.318924859447226e-08	4.158538559504242e-09	-2.002286865989099e-08	6.659587953149839e-08	-2.008925818771107e-08
1.03	-0.3537472384102864	0.02004701610760933	0.6192770914240574	1.455732012711603	-0.4933737263561929	-0.003683963587470679	-0.2617988371859842	1.415122692080565	1.415122692080133	-0.07444539033386363	-0.1745321187322392	0.435967664746177	0.1015292820019518	0.01283987700699359	0.00970485936297962	0.05237244545565501	-0.1594502453382081	0.004336318327228925	-0.06929825040901547	-8.690478818975788e-06	-0.1606880848236438	-0.1606880848236428	-0.0184814966764034	5.871461647908068e-05	-0.03540301847075937	-0.02083266593334221	-0.2247175638499064	0.0544665967769552	0.0007358256396134083	-0.3517903446520086	-0.07363036727295566	0.02033816457812267	0.2143162567204503	-62.41326261171513	2.266692370332336	-0.89312382573726	14.64432345780593	-628.8473502666984	-61.24438456197241	-0.8558691081084422	0.9799918705177375	0.01194929404185859	1.720886884709339	-5.301585586099791	0.2564387055471339	-2.321655371804173	0.007497701448627694	-5.356749143856341	-5.35674914385632	-0.4867141038180374	0.009278207073546079	-1.718501094133554	-0.9531685159757862	-2.013537302013583e-08	-2.430073740521212e-08	1.311075163472871e-07	3.70364862649188e-09	-2.953073103082351e-08	8.151520891507853e-08	-3.083056853822202e-08
1.04	-0.3535695677577641	0.02014470362251474	0.619886801287059	1.453872217816162	-0.4933178792924092	-0.004492321603286137	-0.2617988282785217	1.413247950972794	1.413247950972343	-0.07465583737816602	-0.1745317808786305	0.4355274787576587	0.1012725661542555	0.02268708422921063	0.009834984543429215	0.06955814984746539	-0.2124788161649642	0.006833508491255451	-0.09236855117541239	2.100749444832197e-05	-0.214249391301799	-0.214249391301799	-0.02360671060024506	-4.046752492533476e-06	-0.05264406681189439	-0.03051422447985225	-0.2244955820912272	0.05451317579554641	0.0006773917120154935	-0.3512634792973423	-0.07368880902000281	0.02040895851701524	0.2141450441426503	-62.41019888059699	2.213542379160748	-0.8596721871319059	14.61799362403076	-628.6209958672416	-61.23344261133104	-0.8843424184608147	0.9963332757647132	0.01443521242621382	1.717362664878747	-5.314370194500338	0.2361875990565689	-2.279178669973387	-0.009246673739279745	-5.358129747005165	-5.35812974700549	-0.56447013878912	-0.03357005340577481	-1.732341826985883	-0.9969909923086923	-2.576719228575017e-08	-2.982427604063733e-08	1.760878308510575e-07	5.886366879824459e-09	-3.818109277850094e-08	1.037456995488059e-07	-3.991524086308298e-08
